<svg width="25" height="25" viewBox="0 0 25 25" fill="none" xmlns="http://www.w3.org/2000/svg">
<path fill-rule="evenodd" clip-rule="evenodd" d="M24.9804 9.375C25.3801 4.25 19.6346 0 12.5027 0C5.37083 0 -0.374651 4.25 0.0250348 9.375H24.9804Z" fill="black"/>
<path fill-rule="evenodd" clip-rule="evenodd" d="M4.18421 14.8438C4.87117 14.8438 5.15844 15.0625 5.62058 15.4062C6.18263 15.8281 6.95702 16.4062 8.34343 16.4062C9.72984 16.4062 10.5042 15.8281 11.0663 15.4062C11.5284 15.0469 11.8032 14.8438 12.5027 14.8438C13.1896 14.8438 13.4769 15.0625 13.939 15.4062C14.5011 15.8281 15.2755 16.4062 16.6619 16.4062C18.0483 16.4062 18.8227 15.8281 19.3847 15.4062C19.8469 15.0469 20.1217 14.8438 20.8211 14.8438C21.5081 14.8438 21.7953 15.0625 22.2575 15.4062C22.8195 15.8281 23.5939 16.3906 24.9678 16.4062V13.3125C24.9678 13.3125 23.9811 13.0625 23.519 12.7188C22.9569 12.2969 22.1825 11.7188 20.7961 11.7188C19.4097 11.7188 18.6353 12.2969 18.0733 12.7188C17.6111 13.0781 17.3239 13.2812 16.6369 13.2812C15.9499 13.2812 15.6627 13.0625 15.2005 12.7188C14.6385 12.2969 13.8641 11.7188 12.4777 11.7188C11.0913 11.7188 10.3169 12.2969 9.75482 12.7188C9.29269 13.0781 9.0179 13.2812 8.31845 13.2812C7.63149 13.2812 7.34422 13.0625 6.88208 12.7188C6.32003 12.2969 5.54563 11.7188 4.15923 11.7188C2.77282 11.7188 1.99843 12.2969 1.43637 12.7188C0.974233 13.0781 0.699449 13.2812 0 13.2812V16.4062C1.38641 16.4062 2.1608 15.8281 2.76033 15.4062C3.22246 15.0469 3.49725 14.8438 4.18421 14.8438Z" fill="black"/>
<path fill-rule="evenodd" clip-rule="evenodd" d="M0 18.75V21.875C0 23.5938 1.12412 25 2.49803 25H22.4823C23.8562 25 24.9803 23.5938 24.9803 21.875V18.75H0Z" fill="black"/>
</svg>
